# xmcd CD database file
#
# Track frame offsets:
#	150
#	14877
#	27815
#	39150
#	54887
#	71737
#	98612
#	115620
#	129145
#	149700
#	166170
#	176800
#	191455
#	204415
#	218462
#
# Disc length: 3075 seconds
#
# Revision: 0
# Processed by: cddbd v1.4PL0 Copyright (c) Steve Scherf et al.
# Submitted via: CDex 1.50
#
DISCID=c50c010f
DTITLE=Les Daraîche - Portrait de Famille
DYEAR=1997
DGENRE=Country
TTITLE0=Pour donner un peu de bonheur
TTITLE1=En m'attendant
TTITLE2=Pour Elle
TTITLE3=J'ai tant cherché
TTITLE4=Le grand départ
TTITLE5=La marhce pour le Saguenay
TTITLE6=Dans mon journal
TTITLE7=Partir en trournée
TTITLE8=Un jour ma mère ma dit
TTITLE9=J'ai essayé
TTITLE10=Je ne t'avais pas tout à fait oublié
TTITLE11=Viens près de moi
TTITLE12=Je me souviens
TTITLE13=Moi et Paul
TTITLE14=Jusqu'au bout du monde
EXTD=YEAR: 1997
EXTT0=
EXTT1=
EXTT2=
EXTT3=
EXTT4=
EXTT5=
EXTT6=
EXTT7=
EXTT8=
EXTT9=
EXTT10=
EXTT11=
EXTT12=
EXTT13=
EXTT14=
PLAYORDER=
